<?xml version="1.0" encoding="UTF-8"?>
<svg xmlns="http://www.w3.org/2000/svg" xmlns:xlink="http://www.w3.org/1999/xlink" width="120px" height="120px" viewBox="0 0 120 120" version="1.1">
<defs>
<linearGradient id="linear0" gradientUnits="userSpaceOnUse" x1="36" y1="86" x2="36" y2="22" >
<stop offset="0" style="stop-color:rgb(13.333333%,82.745098%,93.333333%);stop-opacity:1;"/>
<stop offset="0.5" style="stop-color:rgb(75.294118%,51.764706%,98.823529%);stop-opacity:1;"/>
<stop offset="1" style="stop-color:rgb(95.686275%,44.705882%,71.372549%);stop-opacity:1;"/>
</linearGradient>
<linearGradient id="linear1" gradientUnits="userSpaceOnUse" x1="83.970001" y1="86" x2="83.970001" y2="22" >
<stop offset="0" style="stop-color:rgb(13.333333%,82.745098%,93.333333%);stop-opacity:1;"/>
<stop offset="0.5" style="stop-color:rgb(75.294118%,51.764706%,98.823529%);stop-opacity:1;"/>
<stop offset="1" style="stop-color:rgb(95.686275%,44.705882%,71.372549%);stop-opacity:1;"/>
</linearGradient>
<linearGradient id="linear2" gradientUnits="userSpaceOnUse" x1="59.990002" y1="66.5" x2="59.990002" y2="52.040001" >
<stop offset="0" style="stop-color:rgb(13.333333%,82.745098%,93.333333%);stop-opacity:1;"/>
<stop offset="0.5" style="stop-color:rgb(75.294118%,51.764706%,98.823529%);stop-opacity:1;"/>
<stop offset="1" style="stop-color:rgb(95.686275%,44.705882%,71.372549%);stop-opacity:1;"/>
</linearGradient>
<linearGradient id="linear3" gradientUnits="userSpaceOnUse" x1="61.009998" y1="55.959999" x2="61.009998" y2="41.5" >
<stop offset="0" style="stop-color:rgb(13.333333%,82.745098%,93.333333%);stop-opacity:1;"/>
<stop offset="0.5" style="stop-color:rgb(75.294118%,51.764706%,98.823529%);stop-opacity:1;"/>
<stop offset="1" style="stop-color:rgb(95.686275%,44.705882%,71.372549%);stop-opacity:1;"/>
</linearGradient>
</defs>
<g id="surface1">
<path style="fill:none;stroke-width:5;stroke-linecap:round;stroke-linejoin:round;stroke:url(#linear0);stroke-miterlimit:4;" d="M 48 22.003906 C 40 22.003906 36 26.003906 36 34.003906 C 36 38.003906 36 42.003906 36 46.003906 C 36 51.335938 32 54.003906 24 54.003906 C 32 54.003906 36 56.667969 36 62.003906 C 36 66.003906 36 70.003906 36 74.003906 C 36 82.003906 40 86.003906 48 86.003906 "/>
<path style="fill:none;stroke-width:5;stroke-linecap:round;stroke-linejoin:round;stroke:url(#linear1);stroke-miterlimit:4;" d="M 71.976562 22.003906 C 79.976562 22.003906 83.976562 26.003906 83.976562 34.003906 C 83.976562 38.003906 83.976562 42.003906 83.976562 46.003906 C 83.976562 51.335938 87.976562 54.003906 95.976562 54.003906 C 87.976562 54.003906 83.976562 56.667969 83.976562 62.003906 C 83.976562 66.003906 83.976562 70.003906 83.976562 74.003906 C 83.976562 82.003906 79.976562 86.003906 71.976562 86.003906 "/>
<path style=" stroke:none;fill-rule:nonzero;fill:url(#linear2);" d="M 59.375 66.449219 C 54.574219 65.996094 50.484375 62.855469 48.777344 58.316406 C 48.238281 56.875 47.953125 55.164062 48.007812 53.625 C 48.03125 52.875 48.101562 52.648438 48.339844 52.472656 C 48.480469 52.371094 49.980469 52.042969 50.300781 52.042969 C 50.546875 52.042969 50.769531 52.175781 50.902344 52.394531 C 50.980469 52.53125 50.992188 52.621094 50.976562 52.945312 C 50.933594 53.640625 50.957031 54.941406 51.019531 55.316406 C 51.351562 57.425781 52.28125 59.257812 53.757812 60.738281 C 55.238281 62.21875 57.03125 63.128906 59.179688 63.484375 C 59.664062 63.5625 61.1875 63.5625 61.742188 63.480469 C 63.214844 63.265625 64.6875 62.6875 65.871094 61.867188 C 66.238281 61.613281 66.894531 61.082031 66.894531 61.042969 C 66.894531 61.027344 66.6875 60.800781 66.433594 60.542969 C 66.179688 60.285156 65.949219 60.011719 65.917969 59.9375 C 65.796875 59.609375 65.910156 59.25 66.1875 59.078125 C 66.269531 59.027344 66.796875 58.84375 67.359375 58.664062 C 67.925781 58.488281 69.015625 58.128906 69.785156 57.875 C 70.554688 57.621094 71.246094 57.417969 71.324219 57.417969 C 71.65625 57.417969 71.972656 57.773438 71.972656 58.148438 C 71.972656 58.433594 70.964844 63.496094 70.867188 63.703125 C 70.78125 63.878906 70.566406 64.03125 70.332031 64.082031 C 70.085938 64.132812 69.835938 63.992188 69.402344 63.558594 C 69.265625 63.425781 69.128906 63.292969 68.996094 63.160156 C 68.925781 63.226562 68.859375 63.292969 68.789062 63.359375 C 68.066406 64.050781 66.746094 64.910156 65.675781 65.378906 C 63.652344 66.273438 61.460938 66.648438 59.375 66.449219 Z M 59.375 66.449219 "/>
<path style=" stroke:none;fill-rule:nonzero;fill:url(#linear3);" d="M 70.476562 55.921875 C 70.070312 55.785156 69.953125 55.488281 70.03125 54.789062 C 70.089844 54.210938 70.050781 53.101562 69.949219 52.507812 C 69.585938 50.449219 68.6875 48.703125 67.238281 47.253906 C 65.757812 45.773438 63.964844 44.867188 61.816406 44.507812 C 61.332031 44.429688 59.808594 44.429688 59.253906 44.515625 C 57.894531 44.710938 56.515625 45.226562 55.394531 45.957031 C 54.96875 46.230469 54.101562 46.902344 54.101562 46.957031 C 54.101562 46.96875 54.3125 47.191406 54.566406 47.449219 C 54.820312 47.710938 55.046875 47.984375 55.078125 48.054688 C 55.199219 48.382812 55.082031 48.761719 54.800781 48.921875 C 54.726562 48.964844 54.167969 49.160156 53.5625 49.351562 C 52.957031 49.546875 51.859375 49.902344 51.117188 50.148438 C 49.636719 50.636719 49.558594 50.644531 49.261719 50.398438 C 49.082031 50.238281 49.011719 50.082031 49.019531 49.820312 C 49.019531 49.546875 50.039062 44.527344 50.132812 44.339844 C 50.214844 44.164062 50.429688 44.011719 50.660156 43.960938 C 50.933594 43.902344 51.121094 44.011719 51.5625 44.445312 C 51.703125 44.585938 51.84375 44.722656 51.980469 44.859375 C 52.136719 44.730469 52.289062 44.597656 52.441406 44.464844 C 55.230469 42.085938 59.019531 41.050781 62.652344 41.6875 C 67.4375 42.515625 71.398438 46.191406 72.601562 50.894531 C 72.941406 52.238281 73.078125 53.785156 72.957031 54.871094 C 72.882812 55.472656 72.742188 55.585938 71.773438 55.78125 C 70.808594 55.980469 70.683594 55.992188 70.476562 55.921875 Z M 70.476562 55.921875 "/>
</g>
</svg>
